<svg aria-hidden="true" style="position: absolute; width: 0; height: 0; overflow: hidden;" version="1.1" xmlns="http://www.w3.org/2000/svg" xmlns:xlink="http://www.w3.org/1999/xlink">
<defs>
<symbol id="bx" viewBox="0 0 32 32">
<path d="M1.274 20.079c0.101 0.39 0.348 0.724 0.689 0.925l2.83 1.682v3.351c0 0.841 0.662 1.524 1.481 1.524h3.258l1.636 2.911c0.197 0.349 0.521 0.605 0.901 0.71 0.126 0.034 0.253 0.052 0.382 0.052 0.258 0 0.514-0.068 0.742-0.204l2.827-1.682 2.83 1.682c0.339 0.203 0.745 0.256 1.124 0.152s0.704-0.36 0.899-0.71l1.634-2.909h3.258c0.819 0 1.481-0.683 1.481-1.524v-3.351l2.83-1.682c0.708-0.421 0.951-1.353 0.541-2.082l-1.636-2.909 1.636-2.907c0.409-0.728 0.166-1.661-0.541-2.082l-2.83-1.682v-3.352c0-0.841-0.662-1.524-1.481-1.524h-3.258l-1.634-2.909c-0.197-0.35-0.521-0.605-0.899-0.71-0.379-0.107-0.784-0.050-1.124 0.152l-2.83 1.682-2.828-1.682c-0.708-0.424-1.615-0.172-2.024 0.556l-1.636 2.91h-3.258c-0.819 0-1.481 0.683-1.481 1.524v3.351l-2.83 1.682c-0.341 0.203-0.588 0.536-0.689 0.926-0.102 0.39-0.049 0.806 0.148 1.157l1.636 2.907-1.636 2.907c-0.197 0.35-0.25 0.766-0.148 1.156zM6.050 15.252l-1.321-2.351 2.287-1.361c0.458-0.273 0.739-0.776 0.739-1.32v-2.705h2.631c0.529 0 1.019-0.29 1.283-0.762l1.321-2.351 2.287 1.359c0.458 0.273 1.024 0.273 1.481 0l2.289-1.359 1.32 2.351c0.265 0.472 0.754 0.762 1.283 0.762h2.631v2.706c0 0.544 0.281 1.047 0.739 1.32l2.287 1.361-1.323 2.351c-0.265 0.472-0.265 1.053 0 1.525l1.323 2.351-2.287 1.361c-0.458 0.273-0.739 0.776-0.739 1.32v2.706h-2.631c-0.529 0-1.019 0.289-1.283 0.762l-1.32 2.351-2.289-1.361c-0.228-0.136-0.484-0.204-0.741-0.204s-0.513 0.069-0.742 0.204l-2.286 1.361-1.321-2.351c-0.265-0.471-0.754-0.762-1.283-0.762h-2.631v-2.706c0-0.544-0.281-1.047-0.739-1.32l-2.287-1.361 1.323-2.351c0.265-0.472 0.265-1.054-0.001-1.527z"></path>
<path fill="none" opacity="0.5" stroke="#000" style="stroke: var(--color1, #000)" stroke-linejoin="miter" stroke-linecap="round" stroke-miterlimit="4" stroke-width="1.7778" d="M10.667 16l3.556 3.657 7.111-7.314"></path>
</symbol>
<symbol id="bx-time" viewBox="0 0 30 32">
<path fill="#797979" style="fill: var(--color2, #797979)" d="M15.047 3.742c-6.914 0-12.539 5.625-12.539 12.539s5.625 12.539 12.539 12.539 12.539-5.625 12.539-12.539c0-6.914-5.625-12.539-12.539-12.539zM15.047 26.313c-5.531 0-10.031-4.5-10.031-10.032s4.5-10.031 10.031-10.031c5.531 0 10.031 4.5 10.031 10.031s-4.5 10.032-10.031 10.032z"></path>
<path fill="#797979" style="fill: var(--color2, #797979)" d="M16.301 10.012h-2.508v7.524h7.524v-2.508h-5.016v-5.016z"></path>
</symbol>

<symbol id="doc" viewBox="0 0 23 32">
<path d="M14.063 9.777h-5.357c-0.37 0-0.67 0.3-0.67 0.67s0.3 0.67 0.67 0.67h5.357c0.37 0 0.67-0.3 0.67-0.67s-0.3-0.67-0.67-0.67z"></path>
<path d="M14.063 12.455h-5.357c-0.37 0-0.67 0.3-0.67 0.67s0.3 0.67 0.67 0.67h5.357c0.37 0 0.67-0.3 0.67-0.67s-0.3-0.67-0.67-0.67z"></path>
<path d="M14.063 15.134h-10.714c-0.37 0-0.67 0.3-0.67 0.67s0.3 0.67 0.67 0.67h10.714c0.37 0 0.67-0.3 0.67-0.67s-0.3-0.67-0.67-0.67z"></path>
<path d="M11.635 17.812h-8.287c-0.37 0-0.67 0.3-0.67 0.67s0.3 0.67 0.67 0.67h8.287c0.37 0 0.67-0.3 0.67-0.67s-0.3-0.67-0.67-0.67z"></path>
<path d="M17.455 17.812v-10.089c0-1.11-0.942-2.009-2.053-2.009h-9.375c-0.17 0-0.344 0.067-0.475 0.198l-5.357 5.402c-0.123 0.124-0.194 0.297-0.194 0.472v14.777c0 1.108 0.901 2.009 2.009 2.009 1.413 0 1.882 0 1.88 0 2.054 0 6.095 0 13.566 0 2.957 0 5.402-2.434 5.402-5.402 0-2.954-2.423-5.357-5.402-5.357zM5.357 8.010v3.106h-3.080l3.080-3.106zM2.009 27.232c-0.369 0-0.67-0.3-0.67-0.67v-14.107h4.688c0.37 0 0.67-0.3 0.67-0.67v-4.732h8.705c0.38 0 0.714 0.313 0.714 0.67v10.256c-1.421 0.361-2.619 1.282-3.337 2.512h-9.431c-0.37 0-0.67 0.3-0.67 0.67s0.3 0.67 0.67 0.67h8.876c-0.112 0.428-0.171 0.877-0.171 1.339h-8.705c-0.37 0-0.67 0.3-0.67 0.67s0.3 0.67 0.67 0.67h8.875c0.271 1.047 0.856 1.991 1.691 2.723h-11.906zM17.455 27.232c-2.202 0-4.062-1.86-4.062-4.063 0-2.215 1.822-4.018 4.062-4.018s4.063 1.802 4.063 4.018c0 2.202-1.86 4.063-4.063 4.063z"></path>
<path d="M19.986 22.030c-0.259-0.264-0.683-0.267-0.947-0.008l-2.257 2.22-0.915-0.885c-0.266-0.257-0.69-0.25-0.947 0.016s-0.25 0.69 0.016 0.947l1.384 1.339c0.261 0.253 0.676 0.251 0.935-0.004l2.723-2.679c0.264-0.259 0.267-0.683 0.008-0.947z"></path>
</symbol>

<symbol id="future" viewBox="0 0 27 32">
<path d="M22.342 17.976l1.193-2.934c0.134-0.329-0.034-0.51-0.372-0.402l-1.187 0.378c-1.315-2.753-3.616-4.839-6.489-5.879-2.901-1.050-6.037-0.907-8.831 0.402s-4.91 3.628-5.96 6.529c-0.745 2.060-0.889 4.239-0.442 6.33 0.183 0.853 0.464 1.692 0.844 2.501 1.309 2.794 3.627 4.911 6.528 5.961s6.037 0.907 8.831-0.402c0.396-0.186 0.792-0.372 1.147-0.619 0.471-0.327 0.967-0.618 0.48-1.33-0.493-0.721-1.468-0.179-2.415 0.267-2.342 1.103-4.976 1.218-7.411 0.337s-4.38-2.657-5.478-5.002c-0.318-0.68-0.554-1.383-0.708-2.099-0.376-1.754-0.255-3.583 0.371-5.312 0.881-2.435 2.657-4.38 5.002-5.479s4.976-1.218 7.411-0.337c2.329 0.844 4.209 2.508 5.33 4.704l-1.231 0.393c-0.338 0.108-0.37 0.352-0.071 0.543l2.671 1.702c0.3 0.191 0.654 0.078 0.788-0.251z"></path>
<path d="M10.952 13.275v6.678l-4.531 3.694c-0.322 0.262-0.37 0.736-0.108 1.058 0.149 0.182 0.365 0.277 0.583 0.277 0.167 0 0.335-0.055 0.475-0.169l5.084-4.145v-7.392c0-0.415-0.337-0.752-0.752-0.752s-0.752 0.337-0.752 0.752z"></path>
<path d="M23.655 20.53c-0.805 0-1.561 0.313-2.118 0.869l-0.973 0.934-0.959-0.92c-0.568-0.57-1.326-0.883-2.13-0.883s-1.561 0.315-2.129 0.883c-0.57 0.569-0.883 1.324-0.883 2.13 0 0.803 0.313 1.561 0.883 2.129 0.567 0.569 1.324 0.883 2.129 0.883 0.804 0 1.562-0.313 2.117-0.87l0.973-0.933 0.96 0.92c0.569 0.569 1.326 0.883 2.131 0.883s1.56-0.313 2.129-0.883c0.569-0.567 0.883-1.325 0.883-2.13s-0.313-1.561-0.883-2.13c-0.569-0.569-1.325-0.882-2.129-0.882zM18.372 24.438c-0.479 0.479-1.314 0.479-1.793 0-0.24-0.24-0.372-0.558-0.372-0.896 0-0.339 0.132-0.656 0.373-0.897 0.238-0.24 0.557-0.372 0.895-0.372s0.657 0.132 0.91 0.384l0.921 0.886-0.934 0.895zM24.551 24.438c-0.479 0.48-1.302 0.492-1.807-0.012l-0.921-0.886 0.934-0.896c0.479-0.48 1.314-0.48 1.794-0.001 0.24 0.241 0.372 0.559 0.372 0.897s-0.132 0.659-0.372 0.898z"></path>
</symbol>

<symbol id="qr" viewBox="0 0 22 32">
<path d="M21.149 13.514c-0.508 0-0.919-0.412-0.919-0.92v-4.359c0-0.485-0.394-0.879-0.878-0.879h-4.359c-0.509 0-0.919-0.412-0.919-0.92s0.411-0.92 0.919-0.92h4.359c1.499 0 2.717 1.219 2.717 2.718v4.359c0 0.508-0.411 0.92-0.92 0.92z"></path>
<path d="M0.92 13.514c-0.508 0-0.92-0.412-0.92-0.92v-4.359c0-1.499 1.218-2.718 2.717-2.718h4.359c0.508 0 0.92 0.412 0.92 0.92s-0.411 0.92-0.92 0.92h-4.359c-0.484 0-0.878 0.394-0.878 0.879v4.359c0 0.508-0.411 0.92-0.92 0.92z"></path>
<path d="M19.352 27.586h-4.359c-0.509 0-0.919-0.412-0.919-0.919s0.411-0.92 0.919-0.92h4.359c0.484 0 0.878-0.394 0.878-0.879v-4.359c0-0.508 0.411-0.919 0.919-0.919s0.92 0.412 0.92 0.919v4.359c0 1.499-1.218 2.718-2.717 2.718z"></path>
<path d="M7.076 27.586h-4.359c-1.499 0-2.717-1.219-2.717-2.718v-4.359c0-0.508 0.411-0.919 0.92-0.919s0.92 0.412 0.92 0.919v4.359c0 0.485 0.394 0.879 0.878 0.879h4.359c0.508 0 0.92 0.412 0.92 0.92s-0.411 0.919-0.92 0.919z"></path>
<path d="M8.715 15.778h-4.577c-0.508 0-0.92-0.412-0.92-0.919v-5.204c0-0.508 0.411-0.92 0.92-0.92h4.577c0.508 0 0.92 0.412 0.92 0.92v5.204c0 0.508-0.412 0.919-0.92 0.919zM5.057 13.939h2.738v-3.365h-2.738v3.365z"></path>
<path d="M17.931 24.368h-4.368c-0.508 0-0.919-0.412-0.919-0.919v-2.926c0-0.508 0.411-0.919 0.919-0.919s0.92 0.412 0.92 0.919v2.006h2.529v-2.759h-1.087c-0.508 0-0.919-0.412-0.919-0.92s0.411-0.919 0.919-0.919h2.007c0.508 0 0.919 0.412 0.919 0.919v4.598c0 0.508-0.411 0.919-0.919 0.919z"></path>
<path d="M17.931 14.337h-3.762c-0.509 0-0.92-0.412-0.92-0.92v-3.762c0-0.508 0.411-0.92 0.92-0.92h3.762c0.508 0 0.919 0.412 0.919 0.92v3.762c0 0.508-0.411 0.92-0.919 0.92zM15.089 12.497h1.923v-1.923h-1.923v1.923z"></path>
<path d="M11.474 18.516h-7.336c-0.508 0-0.92-0.412-0.92-0.919s0.411-0.92 0.92-0.92h6.417v-6.186c0-0.508 0.411-0.92 0.92-0.92s0.919 0.412 0.919 0.92v7.105c0 0.508-0.412 0.919-0.919 0.919z"></path>
<path d="M14.023 18.286c-0.508 0-0.919-0.412-0.919-0.919v-1.253c0-0.508 0.411-0.919 0.919-0.919h4.138c0.509 0 0.92 0.412 0.92 0.919s-0.411 0.919-0.92 0.919h-3.218v0.334c0 0.508-0.411 0.919-0.92 0.919z"></path>
<path d="M11.055 23.173c-0.508 0-0.92-0.412-0.92-0.919v-2.089c0-0.508 0.411-0.919 0.92-0.919s0.919 0.412 0.919 0.919v2.089c0 0.508-0.411 0.919-0.919 0.919z"></path>
<path d="M8.506 24.368h-4.368c-0.508 0-0.92-0.412-0.92-0.92v-3.343c0-0.507 0.411-0.919 0.92-0.919h4.368c0.508 0 0.92 0.412 0.92 0.919v3.343c0 0.508-0.411 0.92-0.92 0.92zM5.057 22.529h2.529v-1.504h-2.529v1.504z"></path>
</symbol>

<symbol id="support" viewBox="0 0 32 32">
<path d="M10.929 18.444l-0.805 0.782c-0.114 0.11-0.178 0.262-0.178 0.421v0.334c0 0.324 0.263 0.586 0.586 0.586h4.809c0.324 0 0.587-0.263 0.587-0.586v-0.432c0-0.324-0.262-0.586-0.587-0.586h-2.657l0.073-0.067c1.737-1.673 2.966-2.99 2.966-4.705 0-1.371-0.891-2.755-2.883-2.755-0.869 0-1.721 0.279-2.398 0.785-0.22 0.165-0.296 0.46-0.183 0.711l0.148 0.327c0.072 0.159 0.21 0.278 0.379 0.324 0.168 0.046 0.348 0.015 0.491-0.085 0.435-0.304 0.883-0.458 1.332-0.458 0.873 0 1.316 0.434 1.316 1.285-0.012 1.153-0.968 2.187-2.998 4.12z"></path>
<path d="M19.696 11.577c-0.016-0.001-0.032-0.002-0.047-0.002h-0.179c-0.192 0-0.371 0.094-0.481 0.251l-3.592 5.14c-0.069 0.098-0.106 0.216-0.106 0.336v0.412c0 0.324 0.262 0.586 0.586 0.586h3.28v1.679c0 0.324 0.262 0.586 0.586 0.586h0.56c0.324 0 0.587-0.263 0.587-0.586v-1.679h0.578c0.324 0 0.587-0.263 0.587-0.586v-0.381c0-0.324-0.263-0.586-0.587-0.586h-0.578v-4.585c0-0.324-0.263-0.586-0.587-0.586h-0.56c-0.016 0-0.032 0.001-0.048 0.002zM19.157 16.747h-1.771c0.45-0.653 1.219-1.774 1.771-2.603v2.603z"></path>
<path d="M16.022 29.464c-6.902 0-12.517-5.615-12.517-12.517 0-6.536 5.035-11.916 11.43-12.47v1.995c0 0.142 0.078 0.272 0.203 0.339 0.057 0.030 0.119 0.045 0.18 0.045 0.075 0 0.15-0.022 0.214-0.065l4.531-3.044c0.106-0.071 0.17-0.191 0.17-0.318s-0.064-0.247-0.17-0.319l-4.531-3.044c-0.118-0.079-0.269-0.087-0.394-0.020s-0.203 0.197-0.203 0.339v1.548c-7.795 0.559-13.966 7.079-13.966 15.015 0 8.301 6.753 15.054 15.054 15.054 3.843 0 7.502-1.448 10.302-4.077l-1.736-1.849c-2.328 2.186-5.37 3.39-8.566 3.39z"></path>
<path d="M28.873 9.101c-0.519-0.848-1.125-1.649-1.802-2.38l-1.861 1.723c0.563 0.608 1.068 1.275 1.499 1.98l2.164-1.324z"></path>
<path d="M28.425 15.246l2.514-0.341c-0.134-0.988-0.368-1.966-0.695-2.905l-2.396 0.833c0.271 0.78 0.465 1.592 0.577 2.413z"></path>
<path d="M26.020 4.664c-0.816-0.573-1.692-1.065-2.604-1.464l-1.017 2.324c0.757 0.332 1.485 0.741 2.164 1.217l1.456-2.077z"></path>
<path d="M25.692 24.895l1.959 1.612c0.634-0.77 1.192-1.605 1.66-2.482l-2.238-1.194c-0.389 0.729-0.854 1.424-1.381 2.064z"></path>
<path d="M28.503 17.914c-0.063 0.828-0.209 1.65-0.434 2.445l2.441 0.69c0.271-0.956 0.446-1.946 0.522-2.941l-2.53-0.193z"></path>
</symbol>

</defs>
</svg>
